nColumns=28
nRows=62
DataType=double
version=3
OpenSimVersion=4.1
endheader
time	ground_force_1_vx	ground_force_1_vy	ground_force_1_vz	ground_force_1_px	ground_force_1_py	ground_force_1_pz	ground_force_1_mx	ground_force_1_my	ground_force_1_mz	ground_force_2_vx	ground_force_2_vy	ground_force_2_vz	ground_force_2_px	ground_force_2_py	ground_force_2_pz	ground_force_2_mx	ground_force_2_my	ground_force_2_mz	ground_force_3_vx	ground_force_3_vy	ground_force_3_vz	ground_force_3_px	ground_force_3_py	ground_force_3_pz	ground_force_3_mx	ground_force_3_my	ground_force_3_mz
0	-2.68304	53.4195	-0.756835	-0.260133	0.006	-0.520189	0	0.584608	0	-13.865	44.2392	3.55962	-0.119093	0.006	-0.702155	0	-1.05508	0	0	0	0	0	0	0	0	0	0
0.01	-2.51995	53.1325	-0.676112	-0.259068	0.006	-0.520016	0	0.547904	0	-13.7541	44.09	3.51986	-0.120045	0.006	-0.700631	0	-1.09266	0	0	0	0	0	0	0	0	0	0
0.02	-2.37912	52.9135	-0.631174	-0.258476	0.006	-0.519551	0	0.516993	0	-13.6917	44.1291	3.42529	-0.121169	0.006	-0.699883	0	-1.11801	0	0	0	0	0	0	0	0	0	0
0.03	-2.41069	52.8005	-0.597633	-0.258372	0.006	-0.519201	0	0.518103	0	-13.7057	44.2614	3.34874	-0.121341	0.006	-0.699885	0	-1.10947	0	0	0	0	0	0	0	0	0	0
0.04	-2.44697	52.4419	-0.531965	-0.258231	0.006	-0.519397	0	0.523309	0	-13.7524	44.1019	3.27752	-0.121262	0.006	-0.69958	0	-1.10974	0	0	0	0	0	0	0	0	0	0
0.05	-2.48987	51.8346	-0.500364	-0.258663	0.006	-0.520978	0	0.542606	0	-13.7816	43.9704	3.25349	-0.120858	0.006	-0.699145	0	-1.13921	0	0	0	0	0	0	0	0	0	0
0.06	-2.5329	51.4338	-0.510753	-0.258556	0.006	-0.522053	0	0.548045	0	-13.7931	43.8249	3.28136	-0.120447	0.006	-0.698664	0	-1.16274	0	0	0	0	0	0	0	0	0	0
0.07	-2.53059	51.1952	-0.493719	-0.257757	0.006	-0.522725	0	0.539253	0	-13.782	43.5149	3.31196	-0.120089	0.006	-0.697383	0	-1.18425	0	0	0	0	0	0	0	0	0	0
0.08	-2.5879	50.8211	-0.428209	-0.257666	0.006	-0.523159	0	0.548495	0	-13.7055	43.1279	3.25508	-0.120335	0.006	-0.696239	0	-1.18187	0	0	0	0	0	0	0	0	0	0
0.09	-2.68947	50.4017	-0.317117	-0.25738	0.006	-0.522441	0	0.561024	0	-13.6077	42.5255	3.20456	-0.119604	0.006	-0.695327	0	-1.16666	0	0	0	0	0	0	0	0	0	0
0.1	-2.79598	49.6888	-0.234326	-0.257076	0.006	-0.522566	0	0.563718	0	-13.4367	41.9047	3.20082	-0.118423	0.006	-0.693656	0	-1.19458	0	0	0	0	0	0	0	0	0	0
0.11	-2.96814	48.6293	-0.122919	-0.257166	0.006	-0.524385	0	0.585174	0	-13.2785	41.262	3.11339	-0.117787	0.006	-0.692269	0	-1.24415	0	0	0	0	0	0	0	0	0	0
0.12	-3.17402	47.5978	-0.02177	-0.257216	0.006	-0.526434	0	0.603666	0	-13.2331	40.4658	2.87794	-0.116759	0.006	-0.69008	0	-1.28693	0	0	0	0	0	0	0	0	0	0
0.13	-3.26929	46.875	0.0189214	-0.256467	0.006	-0.526571	0	0.608626	0	-13.1673	39.3927	2.56054	-0.115214	0.006	-0.687008	0	-1.28999	0	0	0	0	0	0	0	0	0	0
0.14	-3.32276	45.7069	0.110442	-0.256276	0.006	-0.528741	0	0.618661	0	-12.9436	38.1857	2.20981	-0.115728	0.006	-0.683858	0	-1.2527	0	0	0	0	0	0	0	0	0	0
0.15	-3.40697	43.9259	0.266135	-0.256535	0.006	-0.532882	0	0.655501	0	-12.6075	36.8808	1.90713	-0.116179	0.006	-0.681183	0	-1.24306	0	0	0	0	0	0	0	0	0	0
0.16	-3.38441	41.975	0.449023	-0.256391	0.006	-0.537041	0	0.681403	0	-12.2135	35.0329	1.672	-0.115677	0.006	-0.675335	0	-1.26508	0	0	0	0	0	0	0	0	0	0
0.17	-3.26984	40.0501	0.561801	-0.256887	0.006	-0.539446	0	0.671675	0	-11.636	32.624	1.41816	-0.112721	0.006	-0.666606	0	-1.27496	0	0	0	0	0	0	0	0	0	0
0.18	-3.13115	38.1148	0.65317	-0.257241	0.006	-0.540839	0	0.682015	0	-10.7292	29.7215	1.19274	-0.107875	0.006	-0.657	0	-1.25563	0	0	0	0	0	0	0	0	0	0
0.19	-2.95465	35.9707	0.801074	-0.257417	0.006	-0.545067	0	0.712524	0	-9.52104	26.452	1.06365	-0.103974	0.006	-0.644116	0	-1.22216	0	0	0	0	0	0	0	0	0	0
0.2	-2.77478	33.4861	0.985835	-0.257991	0.006	-0.552599	0	0.733901	0	-7.36167	20.175	0.712182	-0.0875224	0.0054	-0.558557	0	-1.11143	0	0	0	0	0	0	0	0	0	0
0.21	-2.3145	30.7694	1.0714	-0.258803	0.006	-0.559875	0	0.672963	0	0	0	0	0	0	0	0	0	0	0	0	0	0	0	0	0	0	0
0.22	-1.80912	27.7696	1.21127	-0.260217	0.006	-0.569557	0	0.621058	0	0	0	0	0	0	0	0	0	0	0	0	0	0	0	0	0	0	0
0.23	-1.26113	24.8357	1.33964	-0.261855	0.006	-0.583136	0	0.566126	0	0	0	0	0	0	0	0	0	0	0	0	0	0	0	0	0	0	0
0.24	-0.703982	22.1797	1.53579	-0.264852	0.006	-0.596285	0	0.499109	0	0	0	0	0	0	0	0	0	0	0	0	0	0	0	0	0	0	0
0.25	-0.118167	5.10864	0.430015	-0.066974	0.0015	-0.15176	0	0.121973	0	0	0	0	0	0	0	0	0	0	0	0	0	0	0	0	0	0	0
0.26	0	0	0	0	0	0	0	0	0	0	0	0	0	0	0	0	0	0	0	0	0	0	0	0	0	0	0
0.27	0	0	0	0	0	0	0	0	0	0	0	0	0	0	0	0	0	0	0	0	0	0	0	0	0	0	0
0.28	0	0	0	0	0	0	0	0	0	0	0	0	0	0	0	0	0	0	0	0	0	0	0	0	0	0	0
0.29	0	0	0	0	0	0	0	0	0	0	0	0	0	0	0	0	0	0	0	0	0	0	0	0	0	0	0
0.3	0	0	0	0	0	0	0	0	0	0	0	0	0	0	0	0	0	0	0	0	0	0	0	0	0	0	0
0.31	0	0	0	0	0	0	0	0	0	0	0	0	0	0	0	0	0	0	0	0	0	0	0	0	0	0	0
0.32	0	0	0	0	0	0	0	0	0	0	0	0	0	0	0	0	0	0	0	0	0	0	0	0	0	0	0
0.33	0	0	0	0	0	0	0	0	0	0	0	0	0	0	0	0	0	0	0	0	0	0	0	0	0	0	0
0.34	0	0	0	0	0	0	0	0	0	0	0	0	0	0	0	0	0	0	0	0	0	0	0	0	0	0	0
0.35	0	0	0	0	0	0	0	0	0	0	0	0	0	0	0	0	0	0	0	0	0	0	0	0	0	0	0
0.36	0	0	0	0	0	0	0	0	0	0	0	0	0	0	0	0	0	0	0	0	0	0	0	0	0	0	0
0.37	0	0	0	0	0	0	0	0	0	0	0	0	0	0	0	0	0	0	0	0	0	0	0	0	0	0	0
0.38	0	0	0	0	0	0	0	0	0	0	0	0	0	0	0	0	0	0	0	0	0	0	0	0	0	0	0
0.39	0	0	0	0	0	0	0	0	0	0	0	0	0	0	0	0	0	0	0	0	0	0	0	0	0	0	0
0.4	0	0	0	0	0	0	0	0	0	0	0	0	0	0	0	0	0	0	0	0	0	0	0	0	0	0	0
0.41	0	0	0	0	0	0	0	0	0	0	0	0	0	0	0	0	0	0	0	0	0	0	0	0	0	0	0
0.42	0	0	0	0	0	0	0	0	0	0	0	0	0	0	0	0	0	0	0	0	0	0	0	0	0	0	0
0.43	0	0	0	0	0	0	0	0	0	0	0	0	0	0	0	0	0	0	0	0	0	0	0	0	0	0	0
0.44	0	0	0	0	0	0	0	0	0	0	0	0	0	0	0	0	0	0	0	0	0	0	0	0	0	0	0
0.45	0	0	0	0	0	0	0	0	0	0	0	0	0	0	0	0	0	0	0	0	0	0	0	0	0	0	0
0.46	0	0	0	0	0	0	0	0	0	0	0	0	0	0	0	0	0	0	0	0	0	0	0	0	0	0	0
0.47	0	0	0	0	0	0	0	0	0	0	0	0	0	0	0	0	0	0	0	0	0	0	0	0	0	0	0
0.48	17.868	21.8595	3.00699	-0.363889	0.0057	-0.594769	0	-1.78606	0	0	0	0	0	0	0	0	0	0	0	0	0	0	0	0	0	0	0
0.49	21.5137	30.4718	2.85447	-0.371762	0.006	-0.590737	0	-1.47906	0	0	0	0	0	0	0	0	0	0	0	0	0	0	0	0	0	0	0
0.5	24.3332	40.3213	2.30105	-0.361451	0.006	-0.562495	0	-1.05427	0	0	0	0	0	0	0	0	0	0	0	0	0	0	0	0	0	0	0
0.51	26.0618	53.2142	1.63104	-0.350364	0.006	-0.537874	0	-0.465723	0	0	0	0	0	0	0	0	0	0	0	0	0	0	0	0	0	0	0
0.52	25.6084	70.5454	0.996659	-0.341334	0.006	-0.519602	0	0.182248	0	12.0574	10.3997	0.0289631	-0.0567829	0.003	-0.315091	0	2.0193	0	0	0	0	0	0	0	0	0	0
0.53	23.2042	93.8442	0.047936	-0.335194	0.006	-0.506603	0	0.701779	0	25.4965	22.8687	1.0414	-0.118672	0.006	-0.647046	0	3.83967	0	0	0	0	0	0	0	0	0	0
0.54	19.5896	123.128	-1.99836	-0.331073	0.006	-0.49681	0	1.0265	0	27.078	25.6525	2.21706	-0.124777	0.006	-0.666084	0	3.59298	0	0	0	0	0	0	0	0	0	0
0.55	14.0281	159.715	-5.76714	-0.327347	0.006	-0.48954	0	1.27144	0	28.2985	29.3133	3.02841	-0.127622	0.006	-0.685098	0	3.2638	0	0	0	0	0	0	0	0	0	0
0.56	4.59767	210.541	-10.912	-0.321315	0.006	-0.482902	0	1.48102	0	28.2301	34.8993	3.82111	-0.131098	0.006	-0.705735	0	2.72396	0	0	0	0	0	0	0	0	0	0
0.57	-8.61552	276.662	-15.2777	-0.314598	0.006	-0.477897	0	1.6947	0	25.2175	43.1138	5.0614	-0.13746	0.006	-0.726368	0	1.96936	0	0	0	0	0	0	0	0	0	0
0.58	-21.5429	344.947	-16.6224	-0.309649	0.006	-0.475163	0	2.04452	0	19.6788	53.6218	6.31551	-0.141975	0.006	-0.742115	0	1.30712	0	0	0	0	0	0	0	0	0	0
0.59	-30.2948	402.736	-16.1636	-0.306707	0.006	-0.473653	0	2.35328	0	12.4138	65.3506	6.84413	-0.143927	0.006	-0.753237	0	0.817737	0	0	0	0	0	0	0	0	0	0
0.6	-34.4091	448.194	-16.8941	-0.305098	0.006	-0.472491	0	2.4709	0	4.01256	77.479	6.42267	-0.144786	0.006	-0.76045	0	0.497469	0	0	0	0	0	0	0	0	0	0
0.61	-35.131	483.875	-19.0067	-0.304114	0.006	-0.471386	0	2.55965	0	-4.00999	91.158	5.40172	-0.145431	0.006	-0.765421	0	0.387402	0	0	0	0	0	0	0	0	0	0
